<svg width="231" height="61" viewBox="0 0 231 61" fill="none" xmlns="http://www.w3.org/2000/svg">
<path d="M2.472 32V16.304H12.528V18.656H5.256V22.664H11.424V25.016H5.256V29.648H12.768V32H2.472ZM18.8546 32L23.4626 23.912L19.1426 16.304H22.2386L24.0866 19.784C24.2786 20.152 24.4706 20.528 24.6626 20.912C24.8546 21.296 25.0706 21.72 25.3106 22.184H25.4066C25.6146 21.72 25.8066 21.296 25.9826 20.912C26.1586 20.528 26.3346 20.152 26.5106 19.784L28.2866 16.304H31.2386L26.9186 24.032L31.5266 32H28.4546L26.4146 28.304C26.1906 27.888 25.9746 27.48 25.7666 27.08C25.5586 26.664 25.3346 26.216 25.0946 25.736H24.9986C24.7746 26.216 24.5666 26.664 24.3746 27.08C24.1826 27.48 23.9826 27.888 23.7746 28.304L21.8066 32H18.8546ZM38.0933 32V16.304H43.2533C44.1173 16.304 44.9093 16.384 45.6293 16.544C46.3653 16.704 46.9973 16.976 47.5253 17.36C48.0533 17.744 48.4693 18.248 48.7733 18.872C49.0773 19.48 49.2293 20.24 49.2293 21.152C49.2293 22.016 49.0773 22.768 48.7733 23.408C48.4693 24.048 48.0453 24.584 47.5013 25.016C46.9733 25.432 46.3413 25.744 45.6053 25.952C44.8853 26.144 44.1013 26.24 43.2533 26.24H40.8773V32H38.0933ZM40.8773 24.008H43.0373C45.3413 24.008 46.4933 23.056 46.4933 21.152C46.4933 20.16 46.2053 19.48 45.6293 19.112C45.0533 18.728 44.1893 18.536 43.0373 18.536H40.8773V24.008ZM56.4439 32V16.304H66.4999V18.656H59.2279V22.664H65.3959V25.016H59.2279V29.648H66.7399V32H56.4439ZM73.9785 32V16.304H79.2105C80.0265 16.304 80.7865 16.384 81.4905 16.544C82.1945 16.704 82.8025 16.968 83.3145 17.336C83.8425 17.688 84.2505 18.16 84.5385 18.752C84.8425 19.344 84.9945 20.08 84.9945 20.96C84.9945 22.16 84.7065 23.128 84.1305 23.864C83.5705 24.6 82.8185 25.128 81.8745 25.448L85.6185 32H82.4745L79.1145 25.856H76.7625V32H73.9785ZM76.7625 23.648H78.9225C80.0105 23.648 80.8345 23.424 81.3945 22.976C81.9705 22.528 82.2585 21.856 82.2585 20.96C82.2585 20.048 81.9705 19.416 81.3945 19.064C80.8345 18.712 80.0105 18.536 78.9225 18.536H76.7625V23.648ZM95.7611 32V18.656H90.8171V16.304H103.489V18.656H98.5451V32H95.7611ZM127.998 32V16.304H132.87C133.686 16.304 134.43 16.376 135.102 16.52C135.79 16.648 136.374 16.864 136.854 17.168C137.35 17.456 137.734 17.848 138.006 18.344C138.294 18.84 138.438 19.448 138.438 20.168C138.438 20.92 138.214 21.616 137.766 22.256C137.334 22.896 136.654 23.336 135.726 23.576V23.672C136.862 23.864 137.734 24.264 138.342 24.872C138.95 25.48 139.254 26.32 139.254 27.392C139.254 28.176 139.102 28.856 138.798 29.432C138.51 30.008 138.094 30.488 137.55 30.872C137.022 31.256 136.39 31.544 135.654 31.736C134.934 31.912 134.142 32 133.278 32H127.998ZM130.782 22.76H132.63C133.734 22.76 134.518 22.568 134.982 22.184C135.462 21.8 135.702 21.24 135.702 20.504C135.702 19.784 135.454 19.28 134.958 18.992C134.462 18.688 133.702 18.536 132.678 18.536H130.782V22.76ZM130.782 29.768H132.99C134.142 29.768 135.014 29.568 135.606 29.168C136.214 28.752 136.518 28.096 136.518 27.2C136.518 26.368 136.222 25.776 135.63 25.424C135.054 25.056 134.174 24.872 132.99 24.872H130.782V29.768ZM146.397 32V16.304H156.453V18.656H149.181V22.664H155.349V25.016H149.181V29.648H156.693V32H146.397ZM167.628 23.648L167.076 25.568H171.06L170.508 23.648C170.284 22.816 170.052 21.968 169.812 21.104C169.572 20.224 169.34 19.344 169.116 18.464H169.02C168.796 19.344 168.564 20.224 168.324 21.104C168.1 21.968 167.868 22.816 167.628 23.648ZM162.396 32L167.484 16.304H170.748L175.836 32H172.884L171.684 27.752H166.452L165.228 32H162.396ZM187.13 32.288C185.418 32.288 184.074 31.776 183.098 30.752C182.122 29.728 181.634 28.144 181.634 26V16.304H184.418V26.216C184.418 27.512 184.658 28.448 185.138 29.024C185.618 29.584 186.282 29.864 187.13 29.864C187.994 29.864 188.674 29.584 189.17 29.024C189.666 28.448 189.914 27.512 189.914 26.216V16.304H192.578V26C192.578 28.16 192.106 29.752 191.162 30.776C190.218 31.784 188.874 32.288 187.13 32.288ZM203.705 32V18.656H198.761V16.304H211.433V18.656H206.489V32H203.705ZM221.695 32V26.552L216.535 16.304H219.487L221.455 20.528C221.727 21.136 221.991 21.736 222.247 22.328C222.519 22.904 222.791 23.512 223.063 24.152H223.159C223.447 23.512 223.727 22.896 223.999 22.304C224.271 21.712 224.543 21.112 224.815 20.504L226.759 16.304H229.639L224.479 26.552V32H221.695Z" fill="#111111"/>
<path d="M6.39648 55.1758C5.00195 55.1758 3.9209 54.748 3.15332 53.8926C2.3916 53.0312 2.01074 51.8154 2.01074 50.2451C2.01074 48.6338 2.39746 47.3887 3.1709 46.5098C3.9502 45.6309 5.05762 45.1914 6.49316 45.1914C6.95605 45.1914 7.41895 45.2412 7.88184 45.3408C8.34473 45.4404 8.70801 45.5576 8.97168 45.6924L8.52344 46.9316C8.20117 46.8027 7.84961 46.6973 7.46875 46.6152C7.08789 46.5273 6.75098 46.4834 6.45801 46.4834C4.50098 46.4834 3.52246 47.7314 3.52246 50.2275C3.52246 51.4111 3.75977 52.3193 4.23438 52.9521C4.71484 53.585 5.42383 53.9014 6.36133 53.9014C7.16406 53.9014 7.9873 53.7285 8.83105 53.3828V54.6748C8.18652 55.0088 7.375 55.1758 6.39648 55.1758ZM18.5201 46.6152H15.3912V55H13.9322V46.6152H10.8385V45.3672H18.5201V46.6152ZM19.798 45.3672H21.3625L23.4719 50.8604C23.9348 52.1143 24.2219 53.0195 24.3332 53.5762H24.4035C24.4797 53.2773 24.6379 52.7676 24.8781 52.0469C25.1242 51.3203 25.9211 49.0938 27.2687 45.3672H28.8332L24.6936 56.3359C24.2834 57.4199 23.8029 58.1875 23.2521 58.6387C22.7072 59.0957 22.0363 59.3242 21.2395 59.3242C20.7941 59.3242 20.3547 59.2744 19.9211 59.1748V58.0059C20.2434 58.0762 20.6037 58.1113 21.0021 58.1113C22.0041 58.1113 22.7189 57.5488 23.1467 56.4238L23.6828 55.0527L19.798 45.3672ZM39.6648 58.3311H38.2498V55H31.5174V58.3311H30.1111V53.7432H30.867C31.6521 52.6768 32.2674 51.4258 32.7127 49.9902C33.158 48.5547 33.3895 47.0137 33.407 45.3672H38.285V53.7432H39.6648V58.3311ZM36.8787 53.7432V46.5186H34.7166C34.6404 47.8193 34.3885 49.1377 33.9607 50.4736C33.5389 51.8037 33.0115 52.8936 32.3787 53.7432H36.8787ZM43.8695 45.3672V51.4756L43.808 53.0752L43.7816 53.5762L48.9936 45.3672H50.8129V55H49.4506V49.1113L49.477 47.9512L49.5209 46.8086L44.3178 55H42.4984V45.3672H43.8695ZM55.29 55H53.585L56.3535 50.9307C55.6094 50.7666 55.0381 50.4502 54.6396 49.9814C54.2471 49.5068 54.0508 48.9121 54.0508 48.1973C54.0508 47.3184 54.3467 46.627 54.9385 46.123C55.5303 45.6191 56.3564 45.3672 57.417 45.3672H61.7061V55H60.2471V51.1504H57.8125L55.29 55ZM55.4746 48.2148C55.4746 49.3281 56.2832 49.8848 57.9004 49.8848H60.2471V46.6328H57.6016C56.1836 46.6328 55.4746 47.1602 55.4746 48.2148ZM76.9006 45.3672H78.5002L74.343 50.0166L78.843 55H77.1379L72.7434 50.1221V55H71.2844V45.3672H72.7434V50.0518L76.9006 45.3672ZM86.0184 55.1758C85.3914 55.1758 84.8172 55.0615 84.2957 54.833C83.7801 54.5986 83.3465 54.2412 82.9949 53.7607H82.8895C82.9598 54.3232 82.9949 54.8564 82.9949 55.3604V59.3242H81.5359V45.3672H82.7225L82.9246 46.6855H82.9949C83.3699 46.1582 83.8064 45.7773 84.3045 45.543C84.8025 45.3086 85.3738 45.1914 86.0184 45.1914C87.2957 45.1914 88.2801 45.6279 88.9715 46.501C89.6687 47.374 90.0174 48.5986 90.0174 50.1748C90.0174 51.7568 89.6629 52.9873 88.9539 53.8662C88.2508 54.7393 87.2723 55.1758 86.0184 55.1758ZM85.8074 46.4307C84.823 46.4307 84.1111 46.7031 83.6717 47.248C83.2322 47.793 83.0066 48.6602 82.9949 49.8496V50.1748C82.9949 51.5283 83.2205 52.498 83.6717 53.084C84.1228 53.6641 84.8465 53.9541 85.8426 53.9541C86.6746 53.9541 87.325 53.6172 87.7937 52.9434C88.2684 52.2695 88.5057 51.3408 88.5057 50.1572C88.5057 48.9561 88.2684 48.0361 87.7937 47.3975C87.325 46.7529 86.6629 46.4307 85.8074 46.4307ZM99.3988 55L99.1088 53.6289H99.0385C98.558 54.2324 98.0775 54.6426 97.5971 54.8594C97.1225 55.0703 96.5277 55.1758 95.8129 55.1758C94.8578 55.1758 94.1078 54.9297 93.5629 54.4375C93.0238 53.9453 92.7543 53.2451 92.7543 52.3369C92.7543 50.3916 94.31 49.3721 97.4213 49.2783L99.0561 49.2256V48.6279C99.0561 47.8721 98.892 47.3154 98.5639 46.958C98.2416 46.5947 97.723 46.4131 97.0082 46.4131C96.2055 46.4131 95.2973 46.6592 94.2836 47.1514L93.8354 46.0352C94.31 45.7773 94.8285 45.5752 95.391 45.4287C95.9594 45.2822 96.5277 45.209 97.0961 45.209C98.2445 45.209 99.0941 45.4639 99.6449 45.9736C100.202 46.4834 100.48 47.3008 100.48 48.4258V55H99.3988ZM96.1029 53.9717C97.0111 53.9717 97.723 53.7227 98.2387 53.2246C98.7602 52.7266 99.0209 52.0293 99.0209 51.1328V50.2627L97.5619 50.3242C96.4018 50.3652 95.5639 50.5469 95.0482 50.8691C94.5385 51.1855 94.2836 51.6807 94.2836 52.3545C94.2836 52.8818 94.4418 53.2832 94.7582 53.5586C95.0805 53.834 95.5287 53.9717 96.1029 53.9717ZM108.244 55.1758C106.85 55.1758 105.769 54.748 105.001 53.8926C104.239 53.0312 103.858 51.8154 103.858 50.2451C103.858 48.6338 104.245 47.3887 105.019 46.5098C105.798 45.6309 106.905 45.1914 108.341 45.1914C108.804 45.1914 109.267 45.2412 109.729 45.3408C110.192 45.4404 110.556 45.5576 110.819 45.6924L110.371 46.9316C110.049 46.8027 109.697 46.6973 109.316 46.6152C108.936 46.5273 108.599 46.4834 108.306 46.4834C106.349 46.4834 105.37 47.7314 105.37 50.2275C105.37 51.4111 105.607 52.3193 106.082 52.9521C106.562 53.585 107.271 53.9014 108.209 53.9014C109.012 53.9014 109.835 53.7285 110.679 53.3828V54.6748C110.034 55.0088 109.223 55.1758 108.244 55.1758ZM122.187 50.1748C122.187 51.7451 121.792 52.9727 121.001 53.8574C120.21 54.7363 119.117 55.1758 117.722 55.1758C116.861 55.1758 116.096 54.9736 115.428 54.5693C114.76 54.165 114.245 53.585 113.881 52.8291C113.518 52.0732 113.337 51.1885 113.337 50.1748C113.337 48.6045 113.729 47.3828 114.514 46.5098C115.299 45.6309 116.389 45.1914 117.784 45.1914C119.131 45.1914 120.201 45.6396 120.992 46.5361C121.789 47.4326 122.187 48.6455 122.187 50.1748ZM114.848 50.1748C114.848 51.4053 115.094 52.3428 115.587 52.9873C116.079 53.6318 116.802 53.9541 117.757 53.9541C118.713 53.9541 119.436 53.6348 119.928 52.9961C120.426 52.3516 120.675 51.4111 120.675 50.1748C120.675 48.9502 120.426 48.0215 119.928 47.3887C119.436 46.75 118.707 46.4307 117.74 46.4307C116.785 46.4307 116.064 46.7441 115.578 47.3711C115.091 47.998 114.848 48.9326 114.848 50.1748ZM132.149 46.6152H129.02V55H127.561V46.6152H124.467V45.3672H132.149V46.6152ZM136.415 49.3486H139.043C140.267 49.3486 141.173 49.5771 141.759 50.0342C142.35 50.4854 142.646 51.1621 142.646 52.0645C142.646 53.0312 142.333 53.7637 141.706 54.2617C141.085 54.7539 140.168 55 138.955 55H134.956V45.3672H136.415V49.3486ZM145.722 55H144.263V45.3672H145.722V55ZM136.415 50.6055V53.7783H138.885C140.431 53.7783 141.205 53.2363 141.205 52.1523C141.205 51.6133 141.026 51.2207 140.669 50.9746C140.311 50.7285 139.702 50.6055 138.841 50.6055H136.415Z" fill="#111111"/>
<circle cx="6" cy="4" r="4" fill="#89211E"/>
<circle cx="22" cy="4" r="4" fill="#F88F65"/>
<circle cx="38" cy="4" r="4" fill="#E9E7B5"/>
</svg>
